/* XPM */
static char *noname[] = {
/* width height ncolors chars_per_pixel */
"58 39 7 1",
/* colors */
"` c #000000",
"a c #B0B0B0",
"b c #BB00FF",
"c c #FF0000",
"d c #00BF7F",
"e c #FFBB00 m #000000",
"f c #0000FF",
/* pixels */
"aaaaaaaaaaaaaaaaaaaaaaaa`````````aaaaaaaaaaaaaaaaaaaaaaaaa",
"aaaaaaaaaaaaaaaaaaaaaa`````````````aaaaaaaaaaaaaaaaaaaaaaa",
"aaaaaaaaaaaaaaaaaaa``````````````````aaaaaaaaaaaaaaaaaaaaa",
"aaaaaaaaaaaaaaaaaa``````````````````````aaaaaaaaaaaaaaaaaa",
"aaaaaaaaaaaaaaaaa`````````aaaaaaaaa```````aaaaaaaaaaaaaaaa",
"aaaaaaaaaaaaaaaa``````aaaaaaaaaaaaaaaa`````aaaaaaaaaaaaaaa",
"aaaaaaaaaaaaaaaa`````aaaaaaaaaaaaaaaaaa`````aaaaaaaaaaaaaa",
"aaaaaaaaaaaaaaa`````aaaaaaaaaaaaaaaaaaaaa````aaaaaaaaaaaaa",
"aaaaaaaaaaaaaa`````aaaaaaaaaaaaaaaaaaaaaaa````aaaaaaaaaaaa",
"aaaaaaaaaaaaa`````aaaaaaaaaaaaaaaaaaaaaaaaaa```aaaaaaaaaaa",
"aaaaaaaaaaaa``````aaaaaaaaaaaaaaaaaaaaaaaaaaa```aaaaaaaaaa",
"aaaaaaaaaaaa`````aaaaaaaaaaaaaaaaaaaaaaaaaaaaa``aaaaaaaaaa",
"aaaaaaaaaaaa````aaaaaaaaaaaaaaaaaaaaaaaaaaaaaaa`aaaaaaaaaa",
"aaaaaaaaaaa````aaaaaaaaaaaaaaaaaaaaaaaaaaaaaaaa``aaaaaaaaa",
"aaaaaaaaaaa````aaaaaaaaaaaaaaaaaaaaaaaaaaaaaaaaa`aaaaaaaaa",
"aaaaaaaaaa`````aaaaaaaaaaaaaaaaaaaaaaaaaaaaaaaaa`aaaaaaaaa",
"aaaaaaaaaa`````aaaaaaaaaaaaaaaaaaaaaaaaaaaaaaaaa`aaaaaaaaa",
"fffaaafffa````aaaaaeeeaaaaaaabbbaabbbaaaaaaccaaaaaaaddddda",
"fffaaafffa````aaaaeeeeaaaaaaaabbabbbaaaaaaaccaaaaaaddddddd",
"ffffaffffa````aaaaeeeeaaaaaaaabbbbbaaaaaaaaccaaaaaaddaaadd",
"ffffaffffa````aaaaeeeeeaaaaaaaabbbbaaaaaaaaccaaaaaaddaaaaa",
"ffffaffffa````aaaeeaaeeaaaaaaaaabbaaaaaaaaaccaaaaaaaddddda",
"ffafffaffa````aaaeeeeeeaaaaaaaabbbbaaaaaaaaccaaaaaaaaaaadd",
"ffafffaffa````aaaeeeeeeeaaaaaabbbbbaaaaaaaaccaaaaaaddaaadd",
"ffafffaffa````aaeeaaaaeeaaaaaabbabbbaaaaaaaccaaaaaaddddddd",
"ffaafaaffaa```aaeeaaaaeeaaaaabbbaabbbaaaaaaccaaaaaaaddddda",
"aaaaaaaaaaa```aaaaaaaaaaaaaaaaaaaaaaaaaaaaaaaaaaaaaaaaaaaa",
"aaaaaaaaaaaa```aaaaaaaaaaaaaaaaaaaaaaaaaaaaaaaaaaaaaaaaaaa",
"aaaaaaaaaaaa```aaaaaaaaaaaaaaaaaaaaaaaaaaaaaaaaaaaaaaaaaaa",
"aaaaaaaaaaaaa```aaaaaaaaaaaaaaaaaaaaaaaaaaaaaaaaaaaaaaaaaa",
"aaaaaaaaaaaaaa```aaaaaaaaaaaaaaaaaaaaaaaaaaaaaaaaaaaaaaaaa",
"aaaaaaaaaaaaaaa```aaaaaaaaaaaaaaaaaaaaaaaaaaaaaaaaaaaaaaaa",
"aaaaaaaaaaaaaaaa```aaaaaaaaaaaaaaaaaaaaaaaaaaaaaaaaaaaaaaa",
"aaaaaaaaaaaaaaaaa```aaaaaaaaaaaaaaaaaaaaaaaaaaaaaaaaaaaaaa",
"aaaaaaaaaaaaaaaaaa```aaaaaaaaaaaaaaaaaaaaaaaaaaaaaaaaaaaaa",
"aaaaaaaaaaaaaaaaaaa```aaaaaaaaaaaaaaaaaaaaaaaaaaaaaaaaaaaa",
"aaaaaaaaaaaaaaaaaaaa```aaaaaaaaaaaaaaaaaaaaaaaaaaaaaaaaaaa",
"aaaaaaaaaaaaaaaaaaaaa`````aaaaaaaaaaaaaaaaaaaaaaaaaaaaaaaa",
"aaaaaaaaaaaaaaaaaaaaaaaa````aaaaaaaaaaaaaaaaaaaaaaaaaaaaaa"
};
